<?xml version="1.0" standalone="no"?>
<!DOCTYPE svg PUBLIC "-//W3C//DTD SVG 20010904//EN"
 "http://www.w3.org/TR/2001/REC-SVG-20010904/DTD/svg10.dtd">
<svg version="1.0" xmlns="http://www.w3.org/2000/svg"
 width="500.000000pt" height="500.000000pt" viewBox="0 0 500.000000 500.000000"
 preserveAspectRatio="xMidYMid meet">

<g transform="translate(0.000000,500.000000) scale(0.100000,-0.100000)"
fill="#000000" stroke="none">
<path d="M1700 3590 c-95 -12 -241 -48 -355 -87 -100 -34 -353 -153 -790 -371
-126 -63 -285 -141 -353 -173 l-123 -58 16 -31 15 -30 101 51 c56 27 102 49
104 47 2 -2 129 -259 283 -573 154 -313 391 -795 526 -1070 135 -275 246 -505
246 -510 0 -6 -45 -33 -99 -60 l-100 -49 15 -28 c8 -15 16 -28 18 -28 2 0 243
119 537 263 566 280 691 352 854 495 179 157 307 342 364 525 29 94 42 246 30
363 -17 185 -69 352 -180 584 -121 251 -273 454 -429 572 -87 67 -228 133
-320 152 -95 19 -275 27 -360 16z m-225 -215 c119 -32 236 -122 356 -278 100
-129 168 -243 294 -492 180 -355 265 -568 306 -769 28 -135 23 -303 -10 -388
-51 -131 -161 -236 -336 -323 l-90 -45 -145 293 c-137 274 -319 644 -741 1506
-99 200 -178 366 -176 367 15 15 212 98 269 113 129 35 187 38 273 16z m-680
-850 c14 -13 25 -31 25 -39 0 -8 3 -23 6 -33 3 -10 -4 -3 -16 15 -24 35 -30
38 -48 20 -18 -18 -14 -86 11 -157 23 -67 51 -97 66 -72 7 11 10 10 15 -6 4
-11 4 -28 0 -37 -16 -43 -61 5 -95 101 -21 60 -36 189 -26 217 9 23 34 20 62
-9z"/>
<path d="M2764 3553 c3 -10 42 -142 87 -293 44 -151 88 -297 96 -325 l16 -50
15 33 c33 68 99 14 74 -61 -8 -24 -10 -27 -11 -10 -3 55 -29 70 -56 30 -13
-21 -12 -30 9 -102 13 -44 56 -190 96 -325 73 -250 105 -359 254 -860 46 -157
101 -341 121 -410 20 -69 38 -133 41 -142 5 -17 27 -18 284 -18 257 0 279 1
284 17 14 45 444 1505 582 1973 85 289 157 533 160 543 5 16 -12 17 -291 15
l-297 -3 -138 -490 c-305 -1088 -282 -1013 -295 -980 -7 17 -104 355 -216 752
l-204 723 -308 0 c-289 0 -308 -1 -303 -17z"/>
</g>
</svg>
